# xmcd
#
# Track frame offsets:
#	150
#	15448
#	30472
#	39751
#	54782
#	76261
#	90493
#	105944
#	116916
#	131993
#	149679
#	162446
#	178496
#	197554
#	213191
#	224165
#	241259
#	254680
#	271104
#	283542
#	302858
#	318526
#	333683
#
# Disc length: 4645 seconds
#
# Revision: 1
# Processed by: cddbd v1.5.2PL0 Copyright (c) Steve Scherf et al.
# Submitted via: audiograbber 1.83.01
#
DISCID=52122317
DTITLE=Verschiedene - Millquarter Linedancer (Vol.4)
DYEAR=1900
DGENRE=Country
TTITLE0=Boom Boom Goes My Heart - Boom Boom Goes My Heart
TTITLE1=Country As Can Be - Brady Seals
TTITLE2=Varius Artist - Fisher's Hornpipe (David Schnaufer)
TTITLE3=Fishin' in the Dark - Fishin' in the Dark
TTITLE4=Barcode Brothers - Flute
TTITLE5=The Samaritans - Joy's Gonna Come In The Mornin
TTITLE6=If You Can't Be Good - If You Can't Be Good, Be Good At
TTITLE7=Shirley Bassey - Kiss Me Honey Honey Kiss Me
TTITLE8=Loslappie (Ek Wil Huistoe Gaan) - Loslappie
TTITLE9=Shania Twain - Man! I Feel Like a Woman!
TTITLE10=Zac Brown Band - Mary
TTITLE11=Purr - Purr Kitty
TTITLE12=Red Hot Salsa - Red Hot Salsa
TTITLE13=The Ponkers - Rock Your Body (Radio Edit)
TTITLE14=Sister - Sister Kate
TTITLE15=John Forgety - Southern Streamline
TTITLE16=Carpenters - Sweet, Sweet Smile
TTITLE17=Varius Artist - the trail
TTITLE18=TimeTo Swing - TimeTo Swing
TTITLE19=Zac Brown Band - Toes
TTITLE20=Turbo - Turbo Polka
TTITLE21=El Simbolo - Uno, Dos, Tres
TTITLE22=In Grid - Vive Le Swing
EXTD=34289AF
EXTT0=
EXTT1=
EXTT2=
EXTT3=
EXTT4=
EXTT5=
EXTT6=
EXTT7=
EXTT8=
EXTT9=
EXTT10=
EXTT11=
EXTT12=
EXTT13=
EXTT14=
EXTT15=
EXTT16=
EXTT17=
EXTT18=
EXTT19=
EXTT20=
EXTT21=
EXTT22=
PLAYORDER=
